<svg xmlns="http://www.w3.org/2000/svg" viewBox="0 0 426.96 533.89"><defs><style>.a,.b{fill:#e63947;stroke-miterlimit:10;}.a{stroke:#1c3557;stroke-width:39px;}.b{stroke:#fff;stroke-width:15.21px;}</style></defs><title>Asset 2</title><path class="a" d="M367.6,282.46c-26.14-26.38-58.17-39.95-96.09-40.14l.89-195.08-78,77.88L193.86,242l-38.59-.18c-16.93-.07-30.34-6-42-17.7-11-11.73-16.23-25.18-16.16-41.53a56.67,56.67,0,0,1,16.54-40.79A53.13,53.13,0,0,1,133,129a58.59,58.59,0,0,1,22.79-4l.35-78.23q-56.93-.26-96.51,39.85c-26.4,26.74-40,58.2-40.14,95.57-.17,37.95,13.11,70.12,39.26,97.1,26.15,26.39,58.21,40,96.16,40.13l38.59.18L193,436.89l77.24,77.36v.14c37.95.17,70.12-13.11,96.51-39.26Q407.2,435,407.45,379T367.6,282.46ZM325,401.37A52,52,0,0,1,312.68,420a54.29,54.29,0,0,1-19.32,12.17,58.47,58.47,0,0,1-22.73,4L271.16,320c16.32.1,29.7,6,41.31,17.7,11,11.73,17.4,25.19,17.33,40.95A58.8,58.8,0,0,1,325,401.37Z"/><path class="b" d="M370.64,282.46c-26.65-26.38-59.32-39.95-98-40.14l.9-195.08L194,125.12,193.48,242l-39.36-.18c-17.27-.07-30.93-6-42.78-17.7-11.26-11.73-16.56-25.18-16.48-41.53a56.68,56.68,0,0,1,4.27-22.17,57.65,57.65,0,0,1,12.59-18.62A54.27,54.27,0,0,1,131.43,129c7.15-2.89,14.9-4,23.23-4L155,46.79Q97,46.54,56.6,86.64c-26.91,26.74-40.75,58.2-40.92,95.57-.18,37.95,13.37,70.12,40,97.1,26.67,26.39,59.36,40,98,40.13l39.36.18-.54,117.27,78.76,77.36v.14c38.7.17,71.51-13.11,98.42-39.26Q411,435,411.28,379T370.64,282.46ZM327.23,401.37A52,52,0,0,1,314.64,420a55.66,55.66,0,0,1-19.7,12.17,60.69,60.69,0,0,1-23.18,4L272.3,320c16.64.1,30.28,6,42.12,17.7,11.26,11.73,17.75,25.19,17.68,40.95A57.79,57.79,0,0,1,327.23,401.37Z"/></svg>